<?xml version="1.0" standalone="no"?>
<!DOCTYPE svg PUBLIC "-//W3C//DTD SVG 20010904//EN"
 "http://www.w3.org/TR/2001/REC-SVG-20010904/DTD/svg10.dtd">
<svg version="1.0" xmlns="http://www.w3.org/2000/svg"
 width="1024.000000pt" height="430.000000pt" viewBox="0 0 1024.000000 430.000000"
 preserveAspectRatio="xMidYMid meet">

<g transform="translate(0.000000,430.000000) scale(0.100000,-0.100000)"
fill="#000000" stroke="none">
<path d="M4000 4160 c-138 -16 -261 -70 -365 -159 -95 -82 -146 -155 -199
-283 l-15 -38 -150 0 c-184 0 -181 3 -181 -137 0 -51 -3 -93 -8 -93 -4 0 -27
38 -50 85 l-42 85 -1114 0 c-742 0 -1141 -4 -1193 -11 -248 -34 -460 -213
-536 -454 -22 -70 -22 -73 -22 -830 0 -757 0 -760 22 -830 66 -207 235 -371
447 -432 l78 -23 4430 0 c3989 0 4436 2 4492 16 214 54 389 221 465 444 l26
75 3 715 c3 639 1 724 -13 795 -58 272 -262 473 -530 520 -75 13 -253 15
-1254 15 l-1167 0 -22 30 -23 30 -145 0 -145 0 -30 67 c-67 149 -188 278 -324
343 -136 66 -179 73 -450 74 l-240 1 -3 -679 -2 -678 257 5 c267 5 300 9 403
55 70 30 160 91 210 141 58 58 136 176 156 236 l16 45 136 0 c189 0 186 -2
192 132 3 59 8 110 11 113 3 3 25 -35 48 -85 l43 -90 1151 -2 c1288 -3 1182 3
1295 -75 65 -44 113 -105 144 -181 l23 -57 3 -683 c2 -446 -1 -703 -8 -740
-14 -78 -53 -153 -107 -207 -45 -45 -131 -96 -186 -109 -16 -4 -2006 -7 -4422
-7 -3313 0 -4404 3 -4437 11 -95 26 -164 77 -221 163 -70 107 -68 73 -65 873
l3 720 34 67 c58 114 163 193 286 216 40 8 425 11 1221 11 l1162 0 6 -23 c9
-38 46 -47 190 -47 l134 0 48 -97 c81 -164 219 -284 407 -351 71 -26 76 -26
405 -30 l332 -4 0 124 c0 83 4 128 12 136 9 9 72 12 224 12 197 0 213 1 237
20 40 31 52 81 31 125 -28 61 -47 65 -283 65 -210 0 -211 0 -216 23 -3 12 -4
99 -3 192 l3 170 215 5 c118 3 222 9 230 14 34 20 59 50 65 77 8 34 -19 95
-49 112 -14 8 -95 14 -241 17 l-220 5 -3 120 c-1 66 -5 126 -7 133 -3 9 -66
12 -272 11 -147 -1 -297 -5 -333 -9z"/>
<path d="M8430 2510 c0 -5 5 -10 10 -10 6 0 10 5 10 10 0 6 -4 10 -10 10 -5 0
-10 -4 -10 -10z"/>
<path d="M2805 2489 c-62 -21 -145 -80 -145 -103 0 -20 100 -81 115 -70 52 39
73 49 114 53 67 9 96 3 125 -24 28 -26 35 -78 15 -118 -6 -12 -87 -96 -180
-187 -169 -164 -170 -166 -167 -205 l3 -40 273 -3 273 -2 -3 57 -3 58 -140 3
c-77 1 -144 7 -149 12 -6 6 31 48 104 117 129 122 160 173 160 261 0 67 -18
109 -63 149 -72 63 -217 81 -332 42z"/>
<path d="M1377 2493 c-4 -3 -7 -163 -7 -355 l0 -348 80 0 80 0 0 139 c0 106 3
141 14 150 9 8 63 11 167 9 l154 -3 5 -145 5 -145 78 -3 77 -3 0 356 0 356
-77 -3 -78 -3 -3 -133 -3 -132 -167 2 -167 3 -3 133 -3 132 -73 0 c-40 0 -76
-3 -79 -7z"/>
<path d="M3877 2493 c-4 -3 -7 -163 -7 -355 l0 -348 80 0 80 0 0 139 c0 106 3
141 14 150 9 8 63 11 167 9 l154 -3 3 -147 3 -148 79 0 80 0 0 355 0 356 -77
-3 -78 -3 -3 -133 -3 -132 -167 2 -167 3 -3 133 -3 132 -73 0 c-40 0 -76 -3
-79 -7z"/>
<path d="M5240 2145 l0 -355 260 0 260 0 0 60 0 60 -177 2 -178 3 -5 290 -5
290 -77 3 -78 3 0 -356z"/>
<path d="M6390 2145 l0 -356 78 3 77 3 0 350 0 350 -77 3 -78 3 0 -356z"/>
<path d="M7250 2145 l0 -356 78 3 77 3 3 203 c3 215 7 230 47 173 11 -16 40
-51 65 -78 25 -28 92 -107 150 -176 l104 -127 68 0 68 0 -2 353 -3 352 -75 0
-75 0 -3 -207 c-2 -157 -5 -208 -15 -208 -6 1 -64 65 -127 142 -63 78 -141
172 -173 210 l-58 68 -64 0 -65 0 0 -355z"/>
<path d="M8615 2487 c-3 -6 -4 -165 -3 -352 l3 -340 78 -3 77 -3 0 86 0 86 46
49 c26 28 52 50 59 50 6 0 53 -51 103 -112 51 -62 101 -123 111 -135 17 -21
28 -23 111 -23 89 0 92 1 79 19 -8 11 -76 96 -152 190 -76 93 -137 177 -135
184 2 8 53 68 114 133 61 66 124 134 139 152 l27 32 -85 0 -84 0 -158 -165
c-86 -91 -161 -162 -166 -159 -5 3 -9 77 -9 165 l0 159 -75 0 c-52 0 -77 -4
-80 -13z"/>
<path d="M4777 684 c-4 -4 -7 -31 -7 -61 0 -56 -4 -60 -44 -42 -36 17 -94 2
-128 -31 -25 -25 -28 -36 -28 -89 0 -53 4 -65 29 -93 27 -30 34 -33 83 -31 29
1 72 2 96 2 l42 1 -2 172 c-3 147 -5 173 -18 176 -9 1 -19 0 -23 -4z m-28
-170 c28 -35 27 -76 -2 -110 -30 -34 -83 -36 -109 -3 -25 30 -23 94 2 119 30
30 83 27 109 -6z"/>
<path d="M6372 682 c-9 -7 -12 -48 -10 -173 3 -151 4 -164 22 -167 28 -6 36
15 36 94 0 81 15 104 68 104 47 0 62 -29 62 -122 0 -77 0 -78 25 -78 25 0 25
0 25 94 0 86 -2 98 -24 123 -19 22 -32 27 -67 28 -24 0 -54 -4 -66 -8 -22 -8
-23 -6 -23 40 0 60 -18 84 -48 65z"/>
<path d="M8547 684 c-4 -4 -7 -83 -7 -176 l0 -169 23 3 c22 3 22 4 22 173 0
145 -2 170 -15 173 -9 1 -19 0 -23 -4z"/>
<path d="M9154 675 c-7 -18 12 -45 32 -45 20 0 36 34 22 48 -17 17 -48 15 -54
-3z"/>
<path d="M7999 655 c-31 -17 -54 -65 -46 -97 11 -42 32 -59 102 -82 74 -24 97
-45 79 -73 -15 -24 -57 -33 -101 -21 -64 16 -78 15 -78 -7 0 -28 64 -48 134
-42 46 3 59 9 84 37 24 26 28 38 23 64 -9 44 -26 58 -109 86 -63 22 -72 28
-75 52 -5 38 35 63 86 53 64 -12 76 -11 80 7 2 12 -6 21 -23 28 -38 14 -126
12 -156 -5z"/>
<path d="M337 653 c-10 -10 -8 -286 2 -302 7 -10 30 -13 103 -9 77 3 101 8
132 27 105 65 93 230 -21 277 -33 14 -204 20 -216 7z m222 -74 c26 -25 31 -39
31 -76 0 -38 -5 -50 -34 -79 -32 -32 -38 -34 -100 -34 l-66 0 0 110 0 110 69
0 c64 0 72 -2 100 -31z"/>
<path d="M1560 501 l0 -161 25 0 c14 0 25 3 25 8 0 4 1 75 3 157 l2 150 -27 3
-28 3 0 -160z"/>
<path d="M5022 503 c3 -155 3 -158 25 -161 31 -4 34 17 31 178 l-3 135 -28 3
-28 3 3 -158z"/>
<path d="M980 616 c0 -15 -7 -26 -20 -29 -11 -3 -20 -13 -20 -22 0 -9 9 -19
20 -22 18 -5 20 -14 20 -85 0 -71 3 -81 25 -104 20 -20 34 -25 63 -22 29 2 37
7 37 23 0 14 -8 21 -28 23 -36 4 -49 31 -45 100 3 55 4 57 33 62 41 7 43 44 3
48 -20 2 -30 10 -34 28 -9 34 -54 34 -54 0z"/>
<path d="M2010 616 c0 -15 -7 -26 -20 -29 -11 -3 -20 -13 -20 -22 0 -9 9 -19
20 -22 18 -5 20 -14 20 -85 0 -71 3 -81 25 -104 32 -32 100 -32 100 1 0 14 -8
20 -29 22 -39 3 -46 16 -46 95 l0 67 33 3 c24 2 32 8 32 23 0 14 -8 21 -30 25
-21 4 -31 11 -33 28 -5 33 -52 31 -52 -2z"/>
<path d="M3237 634 c-4 -4 -7 -16 -7 -26 0 -10 -6 -18 -14 -18 -24 0 -26 -29
-3 -45 18 -13 22 -26 23 -73 2 -96 3 -101 24 -122 36 -36 124 -19 101 19 -5 7
-15 11 -22 9 -8 -3 -22 -1 -31 4 -15 7 -18 22 -18 83 l0 75 30 0 c25 0 30 4
30 25 0 21 -5 25 -29 25 -23 0 -30 5 -33 23 -3 22 -36 36 -51 21z"/>
<path d="M5470 616 c0 -15 -7 -26 -20 -29 -11 -3 -20 -13 -20 -22 0 -9 9 -19
20 -22 18 -5 20 -14 20 -85 0 -71 3 -81 25 -104 20 -20 34 -25 63 -22 29 2 37
7 37 23 0 15 -8 21 -32 23 -39 4 -46 21 -41 102 3 52 4 55 33 60 21 4 30 11
30 25 0 14 -9 21 -30 25 -21 4 -31 11 -33 28 -5 33 -52 31 -52 -2z"/>
<path d="M8980 620 c0 -10 -9 -24 -20 -30 -11 -6 -20 -18 -20 -26 0 -9 9 -18
20 -21 18 -5 20 -14 20 -85 0 -71 3 -81 25 -104 20 -20 34 -25 63 -22 29 2 37
7 37 23 0 15 -7 20 -28 20 -38 1 -47 18 -47 97 l0 67 33 3 c24 2 32 8 32 23 0
14 -8 21 -30 25 -21 4 -31 11 -33 28 -4 30 -52 32 -52 2z"/>
<path d="M727 578 c-18 -6 -27 -16 -25 -27 3 -13 14 -15 64 -13 46 3 63 0 73
-12 23 -28 6 -46 -43 -46 -58 0 -93 -16 -104 -49 -11 -32 0 -64 30 -85 23 -16
89 -22 102 -9 4 5 24 8 44 8 l37 0 0 86 c0 54 -5 96 -14 112 -23 43 -99 59
-164 35z m121 -154 c6 -43 -64 -74 -96 -42 -33 33 -1 70 58 65 27 -1 36 -7 38
-23z"/>
<path d="M1187 579 c-18 -7 -27 -17 -25 -28 3 -13 14 -15 64 -13 46 3 63 0 73
-12 23 -28 6 -46 -44 -46 -74 0 -105 -22 -105 -77 0 -41 39 -73 90 -73 20 0
40 3 44 7 4 5 24 8 44 8 l37 0 0 92 c0 87 -2 95 -27 119 -30 30 -103 41 -151
23z m121 -155 c6 -43 -64 -74 -96 -42 -33 33 -1 70 58 65 27 -1 36 -7 38 -23z"/>
<path d="M1694 577 c-2 -7 -3 -62 -2 -123 3 -97 5 -109 22 -112 24 -5 36 15
29 50 -8 39 5 115 23 133 9 8 31 15 49 15 50 0 65 -28 65 -123 0 -76 1 -78 23
-75 21 3 22 7 22 99 0 81 -3 100 -19 118 -25 27 -76 36 -122 21 -28 -10 -39
-10 -42 -1 -5 15 -41 14 -48 -2z"/>
<path d="M2220 568 c-50 -34 -70 -93 -50 -150 19 -51 54 -79 112 -85 43 -5
108 16 108 35 0 23 -23 29 -60 16 -27 -9 -47 -11 -64 -4 -27 10 -50 45 -41 60
3 6 47 10 97 10 l91 0 -6 37 c-14 86 -115 130 -187 81z m118 -40 c6 -6 12 -19
12 -29 0 -16 -8 -19 -59 -19 -64 0 -78 9 -61 39 16 30 75 35 108 9z"/>
<path d="M2520 583 c-30 -11 -70 -57 -76 -88 -7 -41 17 -98 52 -121 29 -19 82
-23 127 -10 36 11 37 -15 1 -51 -23 -23 -31 -25 -72 -19 -81 12 -86 12 -90 -6
-7 -37 132 -54 187 -22 44 26 51 52 51 194 0 119 -2 130 -18 130 -10 0 -23 -5
-29 -11 -9 -9 -20 -9 -44 0 -34 12 -64 13 -89 4z m110 -63 c43 -43 8 -120 -56
-120 -67 0 -103 72 -59 120 25 27 88 27 115 0z"/>
<path d="M2774 577 c-2 -7 -3 -62 -2 -123 3 -109 3 -109 28 -109 24 0 25 2 30
83 5 88 19 112 62 112 13 0 18 8 18 25 0 28 -13 31 -52 11 -23 -12 -27 -12
-32 0 -7 18 -45 18 -52 1z"/>
<path d="M2983 575 c-22 -9 -31 -19 -27 -29 4 -11 17 -13 60 -9 58 6 84 -5 84
-38 0 -16 -8 -19 -54 -19 -97 0 -140 -67 -80 -126 22 -23 31 -25 72 -20 26 3
63 7 82 8 l35 3 3 79 c2 46 -2 92 -9 108 -22 53 -98 73 -166 43z m121 -141
c19 -49 -78 -92 -104 -45 -13 25 -13 27 6 45 21 21 90 21 98 0z"/>
<path d="M3459 574 c-44 -18 -69 -60 -69 -114 0 -55 22 -94 64 -114 42 -20 76
-20 121 -2 46 20 67 56 67 115 0 58 -23 98 -69 117 -41 17 -68 17 -114 -2z
m111 -54 c25 -25 27 -90 3 -118 -44 -51 -133 -17 -133 51 0 30 16 67 34 79 22
15 76 8 96 -12z"/>
<path d="M3700 465 l0 -125 25 0 c24 0 25 2 25 71 0 83 10 106 56 125 33 14
44 36 24 49 -5 3 -25 -1 -45 -9 -30 -13 -35 -13 -35 0 0 8 -10 14 -25 14 l-25
0 0 -125z"/>
<path d="M4027 579 c-18 -7 -27 -17 -25 -28 3 -13 14 -15 64 -13 46 3 63 0 73
-12 24 -29 6 -43 -60 -48 -70 -5 -89 -21 -89 -74 0 -48 41 -78 95 -69 22 3 57
6 78 6 l37 -1 1 63 c2 111 -1 131 -26 156 -27 27 -102 37 -148 20z m121 -152
c8 -39 -46 -69 -92 -51 -21 8 -20 50 2 63 28 17 86 9 90 -12z"/>
<path d="M4280 464 c0 -124 0 -125 23 -122 20 3 22 9 27 84 3 47 11 88 19 98
16 19 86 22 98 4 4 -7 10 -51 13 -98 5 -79 7 -85 28 -88 22 -3 22 -1 22 96 0
100 0 100 -31 126 -33 28 -73 33 -114 14 -19 -9 -28 -9 -37 0 -7 7 -20 12 -30
12 -16 0 -18 -11 -18 -126z"/>
<path d="M5154 577 c-2 -7 -3 -62 -2 -123 3 -109 3 -109 28 -109 24 0 25 2 28
80 3 92 17 115 68 115 49 0 64 -28 64 -122 0 -77 0 -78 25 -78 25 0 25 0 25
94 0 79 -3 97 -20 119 -25 32 -77 43 -122 28 -21 -8 -35 -8 -42 -1 -14 14 -46
12 -52 -3z"/>
<path d="M5693 575 c-84 -36 -95 -170 -19 -220 39 -26 106 -30 145 -11 51 27
34 42 -42 38 -61 -4 -66 -2 -82 22 -9 14 -14 30 -10 36 3 6 44 10 96 10 84 0
89 1 89 21 0 38 -31 87 -65 103 -40 19 -70 20 -112 1z m104 -47 c7 -6 13 -19
13 -29 0 -16 -8 -19 -59 -19 -61 0 -75 7 -65 33 12 34 78 42 111 15z"/>
<path d="M5924 577 c-2 -7 -3 -62 -2 -123 3 -109 3 -109 28 -109 24 0 25 3 28
65 3 96 8 109 47 126 23 9 35 21 35 34 0 24 -15 25 -53 5 -24 -12 -29 -12 -34
0 -7 19 -42 20 -49 2z"/>
<path d="M6150 572 c-124 -67 -68 -251 73 -239 51 4 96 35 83 56 -9 14 -39 14
-54 -1 -19 -19 -75 -12 -94 13 -25 30 -23 94 2 119 21 21 84 28 95 10 8 -13
42 -13 51 1 11 19 -30 49 -76 54 -33 5 -54 1 -80 -13z"/>
<path d="M6698 579 c-16 -6 -28 -18 -28 -29 0 -16 7 -17 64 -13 58 5 65 4 75
-16 17 -31 8 -38 -60 -43 -74 -5 -105 -32 -95 -83 9 -47 42 -68 96 -60 25 3
62 6 83 6 l37 -1 0 95 c0 84 -3 97 -23 121 -18 21 -34 27 -73 30 -27 2 -61 -1
-76 -7z m120 -156 c4 -28 -36 -56 -75 -51 -20 2 -29 9 -31 26 -5 36 16 53 62
50 33 -2 42 -7 44 -25z"/>
<path d="M6948 583 c-2 -5 -3 -60 -3 -123 l0 -115 25 0 c24 0 25 2 28 80 3 91
17 115 66 115 54 0 61 -11 66 -107 5 -82 7 -88 28 -91 21 -3 22 -1 22 91 0 80
-3 98 -20 120 -25 32 -77 43 -122 28 -21 -8 -35 -8 -42 -1 -12 12 -43 13 -48
3z"/>
<path d="M7304 576 c-45 -20 -64 -52 -64 -109 0 -42 5 -53 31 -78 36 -33 90
-46 125 -30 14 6 29 11 34 11 18 0 10 -40 -11 -61 -21 -21 -59 -22 -131 -4
-24 6 -28 4 -28 -13 0 -29 49 -45 120 -40 101 7 120 42 120 226 0 112 0 112
-24 112 -13 0 -26 -5 -28 -12 -3 -9 -12 -9 -38 0 -42 15 -67 15 -106 -2z m118
-53 c27 -24 24 -87 -4 -107 -75 -53 -171 41 -108 104 25 25 86 27 112 3z"/>
<path d="M7620 578 c-34 -18 -70 -75 -70 -110 0 -101 103 -168 195 -126 33 15
29 44 -5 41 -72 -7 -93 -4 -113 15 -38 38 -17 52 77 52 47 0 87 4 90 8 10 16
-14 78 -38 101 -30 28 -100 38 -136 19z m109 -53 c7 -7 11 -21 7 -30 -4 -13
-18 -15 -63 -13 -50 3 -58 6 -58 23 0 40 79 55 114 20z"/>
<path d="M8290 568 c-47 -32 -62 -63 -57 -121 6 -68 46 -108 114 -114 64 -6
112 25 133 85 13 37 13 47 0 84 -28 79 -122 112 -190 66z m124 -50 c9 -12 16
-38 16 -58 0 -53 -23 -80 -69 -80 -49 0 -76 28 -76 80 0 52 27 80 76 80 28 0
42 -6 53 -22z"/>
<path d="M8660 505 c0 -134 39 -188 122 -171 18 4 51 8 73 9 l40 2 3 123 3
122 -24 0 c-24 0 -25 -3 -29 -85 -3 -63 -9 -89 -23 -105 -21 -23 -77 -27 -93
-7 -6 7 -12 53 -14 103 -3 89 -3 89 -30 92 l-28 3 0 -86z"/>
<path d="M9160 464 c0 -124 0 -125 23 -122 21 3 22 7 25 126 l3 122 -26 0 -25
0 0 -126z"/>
<path d="M9335 577 c-38 -18 -50 -33 -63 -80 -25 -92 38 -173 129 -165 84 8
126 60 116 144 -9 88 -100 138 -182 101z m114 -63 c28 -35 27 -76 -2 -110 -30
-34 -83 -36 -109 -3 -25 30 -23 94 2 119 30 30 83 27 109 -6z"/>
<path d="M9578 573 c-8 -31 -10 -160 -2 -198 5 -29 10 -36 28 -33 19 3 21 11
26 84 3 47 11 88 19 98 16 19 86 22 98 4 4 -7 10 -51 13 -98 5 -79 7 -85 28
-88 21 -3 22 -1 22 91 0 80 -3 98 -20 120 -26 32 -79 44 -121 27 -23 -10 -33
-10 -42 -1 -17 17 -44 13 -49 -6z"/>
</g>
</svg>
